<svg width="220" height="223" viewBox="0 0 220 223" fill="none" xmlns="http://www.w3.org/2000/svg">
    <path fill-rule="evenodd" clip-rule="evenodd" d="M110 0C49.225 0 0 51.1181 0 114.23C0 164.777 31.4875 207.471 75.2125 222.606C80.7125 223.606 82.775 220.179 82.775 217.181C82.775 214.468 82.6375 205.472 82.6375 195.905C55 201.188 47.85 188.909 45.65 182.483C44.4125 179.199 39.05 169.061 34.375 166.348C30.525 164.206 25.025 158.923 34.2375 158.78C42.9 158.637 49.0875 167.062 51.15 170.489C61.05 187.766 76.8625 182.911 83.1875 179.913C84.15 172.488 87.0375 167.49 90.2 164.635C65.725 161.779 40.15 151.926 40.15 108.233C40.15 95.8107 44.4125 85.53 51.425 77.5339C50.325 74.6781 46.475 62.9695 52.525 47.2628C52.525 47.2628 61.7375 44.2643 82.775 58.9714C91.575 56.4013 100.925 55.1162 110.275 55.1162C119.625 55.1162 128.975 56.4013 137.775 58.9714C158.812 44.1215 168.025 47.2628 168.025 47.2628C174.075 62.9695 170.225 74.6781 169.125 77.5339C176.137 85.53 180.4 95.668 180.4 108.233C180.4 152.069 154.688 161.779 130.213 164.635C134.2 168.204 137.637 175.058 137.637 185.767C137.637 201.046 137.5 213.325 137.5 217.181C137.5 220.179 139.562 223.749 145.062 222.606C166.9 214.951 185.875 200.377 199.318 180.936C212.761 161.494 219.994 138.165 220 114.23C220 51.1181 170.775 0 110 0Z" fill="white"/>
</svg>
